<svg height="113.06989mm" viewBox="0 0 81.988602 113.06989" width="81.988602mm" xmlns="http://www.w3.org/2000/svg" xmlns:xlink="http://www.w3.org/1999/xlink"><radialGradient id="a" cx="0" cy="0" fx="4" fy="-4" gradientUnits="userSpaceOnUse" r="9"><stop offset="0" stop-color="#fff"/><stop offset=".5" stop-color="#b4b4b4"/><stop offset="1" stop-color="#5a5a5a"/></radialGradient><radialGradient id="b" cx="0" cy="0" fx="4" fy="-4" gradientUnits="userSpaceOnUse" r="9"><stop offset="0" stop-color="#fff"/><stop offset=".5" stop-color="#fff"/><stop offset="1" stop-color="#7f7f7f"/></radialGradient><radialGradient id="c" cx="0" cy="0" fx="4" fy="-4" gradientUnits="userSpaceOnUse" r="9"><stop offset="0" stop-color="#ffe3b2"/><stop offset=".5" stop-color="#ffb432"/><stop offset="1" stop-color="#7f5a19"/></radialGradient><radialGradient id="d" cx="0" cy="0" fx="4" fy="-4" gradientUnits="userSpaceOnUse" r="9"><stop offset="0" stop-color="#ffd0d0"/><stop offset=".5" stop-color="#ff5050"/><stop offset="1" stop-color="#7f2828"/></radialGradient><radialGradient id="e" cx="0" cy="0" fx="4" fy="-4" gradientUnits="userSpaceOnUse" r="9"><stop offset="0" stop-color="#eef"/><stop offset=".5" stop-color="#6e6eff"/><stop offset="1" stop-color="#37377f"/></radialGradient><g transform="translate(-322.81794 -478.70992)"><g stroke-linecap="square" stroke-linejoin="bevel"><path d="m0 0 36-30" fill="none" stroke="#000" stroke-width="1.5" transform="matrix(.45184903 0 0 .45184903 365.4417 522.3719)"/><path d="m0 0-39-23" fill="none" stroke="#000" stroke-width="1.5" transform="matrix(.45184903 0 0 .45184903 383.06374 532.76469)"/><path d="m0 0 12 45" fill="none" stroke="#000" stroke-width="1.5" transform="matrix(.45184903 0 0 .45184903 345.10834 485.32018)"/><path d="m0 0-33-37" fill="none" stroke="#000" stroke-width="1.5" transform="matrix(.45184903 0 0 .45184903 365.4417 522.3719)"/><path d="m0 0 29-38" fill="none" stroke="#000" stroke-width="1.5" transform="matrix(.45184903 0 0 .45184903 352.3381 539.54221)"/><circle fill="url(#a)" fill-rule="evenodd" r="9" stroke="#000" transform="matrix(.45184903 0 0 .45184903 365.4417 522.3719)"/><circle fill="url(#b)" fill-rule="evenodd" r="9" stroke="#000" transform="matrix(.45184903 0 0 .45184903 345.10834 485.32018)"/><circle fill="url(#c)" fill-rule="evenodd" r="9" stroke="#000" transform="matrix(.45184903 0 0 .45184903 350.53072 505.65354)"/><circle fill="url(#b)" fill-rule="evenodd" r="9" stroke="#000" transform="matrix(.45184903 0 0 .45184903 383.06374 532.76469)"/><circle fill="url(#b)" fill-rule="evenodd" r="9" stroke="#000" transform="matrix(.45184903 0 0 .45184903 381.70835 508.81657)"/><text fill-rule="evenodd" font-family="'DejaVu Sans Mono'" font-size="9" font-weight="400" stroke-opacity=".501961" transform="matrix(.45184903 0 0 .45184903 359.49265 522.15432)" x="-10.1563" y="4.92969">CB</text><text fill-rule="evenodd" font-family="'DejaVu Sans Mono'" font-size="9" font-weight="400" stroke-opacity=".501961" transform="matrix(.45184903 0 0 .45184903 341.70061 478.85928)" x="-11.0625" y="4.92969">HG</text><text fill-rule="evenodd" font-family="'DejaVu Sans Mono'" font-size="9" font-weight="400" stroke-opacity=".501961" transform="matrix(.45184903 0 0 .45184903 345.34948 507.87209)" x="-9.75" y="4.92969">SG</text><text fill-rule="evenodd" font-family="'DejaVu Sans Mono'" font-size="9" font-weight="400" stroke-opacity=".501961" transform="matrix(.45184903 0 0 .45184903 385.10743 524.89383)" x="-15" y="4.8125">HB2/HBx/HB%</text><text fill-rule="evenodd" font-family="'DejaVu Sans Mono'" font-size="9" font-weight="400" stroke-opacity=".501961" transform="matrix(.45184903 0 0 .45184903 376.29717 500.93074)" x="-15.0625" y="4.92969">HB3/HBy/HB%</text><path d="m0 0-27-28" fill="none" stroke="#000" stroke-width="1.5" transform="matrix(-.45293746807 -.05561374745 -.05561374745 .45293746807 368.05801361528 557.28358400964)"/><path d="m0 0-29 46" fill="none" stroke="#000" stroke-width="1.5" transform="matrix(.44078960602 .11810920511 -.11810920511 .44078960602 351.36979216355 540.02632182373)"/><path d="m0 0-27-28" fill="none" stroke="#000" stroke-width="1.5" transform="matrix(.45293746807 -.05561374745 .05561374745 .45293746807 337.08585292496 557.8840084527)"/><path d="m0 0-27-28" fill="none" stroke="#000" stroke-width="1.5" transform="matrix(.45633894862 0 0 .45633894862 351.36979216355 540.51037007919)"/><path d="m0 0-38-34" fill="none" stroke="#000" stroke-width="1.5" transform="matrix(.45633894862 0 0 .45633894862 369.67876629016 555.05780070541)"/><path d="m0 0 3 45" fill="none" stroke="#000" stroke-width="1.5" transform="matrix(.45522732798 .0318325929 -.0318325929 .45522732798 334.93443309129 555.62362644032)"/><g fill="none" fill-rule="evenodd" stroke="#000" stroke-width="1.5" transform="matrix(.45626944582 .00796420639 -.00796420639 .45626944582 369.97168184885 573.77041982936)"><path d="m2.99911-.073149-1-40.999951"/><path d="m-2.99911.073149-1-41.000049"/></g><circle fill="url(#b)" fill-rule="evenodd" r="9" stroke="#000" transform="matrix(.45633894862 0 0 .45633894862 334.90104177513 573.75466718118)"/><circle fill="url(#d)" fill-rule="evenodd" r="9" stroke="#000" transform="matrix(.45633894862 0 0 .45633894862 370.13497666708 573.76786083697)"/><circle fill="url(#b)" fill-rule="evenodd" r="9" stroke="#000" transform="matrix(.45633894862 0 0 .45633894862 339.10402135935 528.13396597528)"/><circle fill="url(#a)" fill-rule="evenodd" r="9" stroke="#000" transform="matrix(.45633894862 0 0 .45633894862 369.67876629016 555.05780070541)"/><circle fill="url(#a)" fill-rule="evenodd" r="9" stroke="#000" transform="matrix(.45633894862 0 0 .45633894862 352.33783494976 539.54244039761)"/><circle fill="url(#e)" fill-rule="evenodd" r="9" stroke="#000" transform="matrix(.45633894862 0 0 .45633894862 334.90104177513 555.64636612738)"/><text fill-rule="evenodd" font-family="'DejaVu Sans Mono'" font-size="9" font-weight="400" stroke-opacity=".501961" transform="matrix(.45633894862 0 0 .45633894862 343.34284945796 572.93853523158)" x="-4.75" y="4.69531">H</text><text fill-rule="evenodd" font-family="'DejaVu Sans Mono'" font-size="9" font-weight="400" stroke-opacity=".501961" transform="matrix(.45633894862 0 0 .45633894862 363.7977069463 572.80638943011)" x="-7.79688" y="5.11719">O'</text><text fill-rule="evenodd" font-family="'DejaVu Sans Mono'" font-size="9" font-weight="400" stroke-opacity=".501961" transform="matrix(.45633894862 0 0 .45633894862 333.14880213329 524.22075198565)" x="-11.4219" y="4.69531">HA</text><text fill-rule="evenodd" font-family="'DejaVu Sans Mono'" font-size="9" font-weight="400" stroke-opacity=".501961" transform="matrix(.45633894862 0 0 .45633894862 362.54990267056 556.91478937827)" x="-5.0625" y="4.92969">C</text><text fill-rule="evenodd" font-family="'DejaVu Sans Mono'" font-size="9" font-weight="400" stroke-opacity=".501961" transform="matrix(.45633894862 0 0 .45633894862 355.00514482154 546.92194106297)" x="-11.4063" y="4.92969">CA</text><text fill-rule="evenodd" font-family="'DejaVu Sans Mono'" font-size="9" font-weight="400" stroke-opacity=".501961" transform="matrix(.45633894862 0 0 .45633894862 343.35811292858 557.35415847489)" x="-4.78125" y="4.69531">N</text></g><text font-family="sans-serif" font-size="5.29167" stroke-width=".748139" x="341.1579" y="590.71527"><tspan font-size="5.29167" stroke-width=".748139" x="341.1579" y="590.71527">Cysteine</tspan></text></g></svg>