<svg height="183.8399mm" viewBox="0 0 90.877106 183.8399" width="90.877106mm" xmlns="http://www.w3.org/2000/svg" xmlns:xlink="http://www.w3.org/1999/xlink"><radialGradient id="a" cx="0" cy="0" fx="4" fy="-4" gradientUnits="userSpaceOnUse" r="9"><stop offset="0" stop-color="#fff"/><stop offset=".5" stop-color="#b4b4b4"/><stop offset="1" stop-color="#5a5a5a"/></radialGradient><radialGradient id="b" cx="0" cy="0" fx="4" fy="-4" gradientUnits="userSpaceOnUse" r="9"><stop offset="0" stop-color="#fff"/><stop offset=".5" stop-color="#fff"/><stop offset="1" stop-color="#7f7f7f"/></radialGradient><radialGradient id="c" cx="0" cy="0" fx="4" fy="-4" gradientUnits="userSpaceOnUse" r="9"><stop offset="0" stop-color="#eef"/><stop offset=".5" stop-color="#6e6eff"/><stop offset="1" stop-color="#37377f"/></radialGradient><radialGradient id="d" cx="0" cy="0" fx="4" fy="-4" gradientUnits="userSpaceOnUse" r="9"><stop offset="0" stop-color="#ffd0d0"/><stop offset=".5" stop-color="#ff5050"/><stop offset="1" stop-color="#7f2828"/></radialGradient><g transform="translate(-20.34474 -426.35793)"><text font-family="sans-serif" font-size="5.29167" stroke-width=".748139" x="41.572113" y="609.1333"><tspan font-size="5.29167" stroke-width=".748139" x="41.572113" y="609.1333">Lysine</tspan></text><g stroke-linecap="square" stroke-linejoin="bevel"><path d="m0 0 36-14" fill="none" stroke="#000" stroke-width="1.5" transform="matrix(.45984426 0 0 .45984426 43.063083 521.45963)"/><path d="m0 0 28 29" fill="none" stroke="#000" stroke-width="1.5" transform="matrix(.45984426 0 0 .45984426 52.719781 455.24196)"/><path d="m0 0 24-30" fill="none" stroke="#000" stroke-dasharray="6 3" stroke-width="1.5" transform="matrix(.45984426 0 0 .45984426 81.230058 448.34436)"/><path d="m0 0 17 55" fill="none" stroke="#000" stroke-width="1.5" transform="matrix(.45984426 0 0 .45984426 65.595375 468.57759)"/><path d="m0 0 28 28" fill="none" stroke="#000" stroke-width="1.5" transform="matrix(.45984426 0 0 .45984426 46.741794 502.14625)"/><path d="m0 0-34 44" fill="none" stroke="#000" stroke-width="1.5" transform="matrix(.45984426 0 0 .45984426 81.230058 448.34436)"/><path d="m0 0 35 17" fill="none" stroke="#000" stroke-dasharray="6 3" stroke-width="1.5" transform="matrix(.45984426 0 0 .45984426 81.230058 448.34436)"/><path d="m0 0 27 31" fill="none" stroke="#000" stroke-width="1.5" transform="matrix(.45984426 0 0 .45984426 64.215719 540.77301)"/><path d="m0 0-30 46" fill="none" stroke="#000" stroke-width="1.5" transform="matrix(.45984426 0 0 .45984426 73.412605 493.86897)"/><path d="m0 0-29-25" fill="none" stroke="#000" stroke-width="1.5" transform="matrix(.45984426 0 0 .45984426 86.748233 505.36512)"/><path d="m0 0-34 21" fill="none" stroke="#000" stroke-width="1.5" transform="matrix(.45984426 0 0 .45984426 89.047288 484.21227)"/><path d="m0 0-37 15" fill="none" stroke="#000" stroke-width="1.5" transform="matrix(.45984426 0 0 .45984426 81.230058 533.87541)"/><path d="m0 0-35 16" fill="none" stroke="#000" stroke-width="1.5" transform="matrix(.45984426 0 0 .45984426 65.595375 468.57759)"/><path d="m0 0-10-56" fill="none" stroke="#000" stroke-width="1.5" transform="matrix(.45984426 0 0 .45984426 64.215719 540.77301)"/><path d="m0 0-26-30" fill="none" stroke="#000" stroke-dasharray="6 3" stroke-width="1.5" transform="matrix(.45984426 0 0 .45984426 81.230058 448.34436)"/><path d="m0 0 30-38" fill="none" stroke="#000" stroke-width="1.5" transform="matrix(.45984426 0 0 .45984426 50.420502 558.24717)"/><circle fill="url(#a)" fill-rule="evenodd" r="9" stroke="#000" transform="matrix(.45984426 0 0 .45984426 59.617388 515.02183)"/><circle fill="url(#b)" fill-rule="evenodd" r="9" stroke="#000" transform="matrix(.45984426 0 0 .45984426 81.230058 533.87541)"/><circle fill="url(#b)" fill-rule="evenodd" r="9" stroke="#000" transform="matrix(.45984426 0 0 .45984426 76.631504 555.02827)"/><circle fill="url(#b)" fill-rule="evenodd" r="9" stroke="#000" transform="matrix(.45984426 0 0 .45984426 89.047288 484.21227)"/><circle fill="url(#b)" fill-rule="evenodd" r="9" stroke="#000" transform="matrix(.45984426 0 0 .45984426 86.748233 505.36512)"/><circle fill="url(#b)" fill-rule="evenodd" r="9" stroke="#000" transform="matrix(.45984426 0 0 .45984426 52.719781 455.24196)"/><circle fill="url(#b)" fill-rule="evenodd" r="9" stroke="#000" transform="matrix(.45984426 0 0 .45984426 49.50088 475.93502)"/><circle fill="url(#b)" fill-rule="evenodd" r="9" stroke="#000" transform="matrix(.45984426 0 0 .45984426 43.063083 521.45963)"/><circle fill="url(#b)" fill-rule="evenodd" r="9" stroke="#000" transform="matrix(.45984426 0 0 .45984426 46.741794 502.14625)"/><circle fill="url(#b)" fill-rule="evenodd" r="9" stroke="#000" transform="matrix(.45984426 0 0 .45984426 69.274084 434.54904)"/><circle fill="url(#b)" fill-rule="evenodd" r="9" stroke="#000" transform="matrix(.45984426 0 0 .45984426 92.266186 434.54904)"/><circle fill="url(#b)" fill-rule="evenodd" r="9" stroke="#000" transform="matrix(.45984426 0 0 .45984426 97.324551 456.16181)"/><circle fill="url(#c)" fill-rule="evenodd" r="9" stroke="#000" transform="matrix(.45984426 0 0 .45984426 81.230058 448.34436)"/><circle fill="url(#a)" fill-rule="evenodd" r="9" stroke="#000" transform="matrix(.45984426 0 0 .45984426 64.215719 540.77301)"/><circle fill="url(#a)" fill-rule="evenodd" r="9" stroke="#000" transform="matrix(.45984426 0 0 .45984426 73.412605 493.86897)"/><circle fill="url(#a)" fill-rule="evenodd" r="9" stroke="#000" transform="matrix(.45984426 0 0 .45984426 65.595375 468.57759)"/><text fill-rule="evenodd" font-family="'DejaVu Sans Mono'" font-size="9" font-weight="400" stroke-opacity=".501961" transform="matrix(.45984426 0 0 .45984426 70.39464 516.04192)" x="-11.0625" y="4.92969">CG</text><text fill-rule="evenodd" font-family="'DejaVu Sans Mono'" font-size="9" font-weight="400" stroke-opacity=".501961" transform="matrix(.45984426 0 0 .45984426 82.898889 539.96222)" x="-15" y="4.8125">HB3/HBy/HB%</text><text fill-rule="evenodd" font-family="'DejaVu Sans Mono'" font-size="9" font-weight="400" stroke-opacity=".501961" transform="matrix(.45984426 0 0 .45984426 89.094656 553.88119)" x="-15.0625" y="4.92969">HB2/HBx/HB%</text><text fill-rule="evenodd" font-family="'DejaVu Sans Mono'" font-size="9" font-weight="400" stroke-opacity=".501961" transform="matrix(.45984426 0 0 .45984426 91.871106 489.90132)" x="-16.5156" y="4.8125">HD3/HDy/HD%</text><text fill-rule="evenodd" font-family="'DejaVu Sans Mono'" font-size="9" font-weight="400" stroke-opacity=".501961" transform="matrix(.45984426 0 0 .45984426 90.00764 511.6719)" x="-16.5625" y="4.92969">HD2/HDx/HD%</text><text fill-rule="evenodd" font-family="'DejaVu Sans Mono'" font-size="9" font-weight="400" stroke-opacity=".501961" transform="matrix(.45984426 0 0 .45984426 33.558049 461.41956)" x="-14.7188" y="4.8125">HE3/HEy/HE%</text><text fill-rule="evenodd" font-family="'DejaVu Sans Mono'" font-size="9" font-weight="400" stroke-opacity=".501961" transform="matrix(.45984426 0 0 .45984426 37.533097 481.35612)" x="-14.7656" y="4.92969">HE2/HEx/HE%</text><text fill-rule="evenodd" font-family="'DejaVu Sans Mono'" font-size="9" font-weight="400" stroke-opacity=".501961" transform="matrix(.45984426 0 0 .45984426 32.069094 527.03676)" x="-16.2813" y="4.92969">HG2/HGx/HG%</text><text fill-rule="evenodd" font-family="'DejaVu Sans Mono'" font-size="9" font-weight="400" stroke-opacity=".501961" transform="matrix(.45984426 0 0 .45984426 29.943015 507.91402)" x="-16.3438" y="4.92969">HG3/HGy/HG%</text><text fill-rule="evenodd" font-family="'DejaVu Sans Mono'" font-size="9" font-weight="400" stroke-opacity=".501961" transform="matrix(.45984426 0 0 .45984426 63.173584 427.01899)" x="-15.4219" y="4.8125">HZ3/HZ%</text><text fill-rule="evenodd" font-family="'DejaVu Sans Mono'" font-size="9" font-weight="400" stroke-opacity=".501961" transform="matrix(.45984426 0 0 .45984426 95.157904 426.95183)" x="-15.25" y="4.8125">HZ2/HZ%</text><text fill-rule="evenodd" font-family="'DejaVu Sans Mono'" font-size="9" font-weight="400" stroke-opacity=".501961" transform="matrix(.45984426 0 0 .45984426 97.613327 462.90638)" x="-15.3125" y="4.92969">HZ1/HZ%</text><text fill-rule="evenodd" font-family="'DejaVu Sans Mono'" font-size="9" font-weight="400" stroke-opacity=".501961" transform="matrix(.45984426 0 0 .45984426 83.901488 457.16131)" x="-10.4063" y="4.69531">NZ</text><text fill-rule="evenodd" font-family="'DejaVu Sans Mono'" font-size="9" font-weight="400" stroke-opacity=".501961" transform="matrix(.45984426 0 0 .45984426 58.308872 540.15665)" x="-10.1563" y="4.92969">CB</text><text fill-rule="evenodd" font-family="'DejaVu Sans Mono'" font-size="9" font-weight="400" stroke-opacity=".501961" transform="matrix(.45984426 0 0 .45984426 67.103818 492.43777)" x="-11.5938" y="4.92969">CD</text><text fill-rule="evenodd" font-family="'DejaVu Sans Mono'" font-size="9" font-weight="400" stroke-opacity=".501961" transform="matrix(.45984426 0 0 .45984426 76.92177 470.20935)" x="-10.0313" y="4.92969">CE</text><path d="m0 0-27-28" fill="none" stroke="#000" stroke-width="1.5" transform="matrix(-.45293746807 -.05561374745 -.05561374745 .45293746807 65.58480361528 575.80099400964)"/><path d="m0 0-29 46" fill="none" stroke="#000" stroke-width="1.5" transform="matrix(.44078960602 .11810920511 -.11810920511 .44078960602 48.89658216355 558.54373182373)"/><path d="m0 0-27-28" fill="none" stroke="#000" stroke-width="1.5" transform="matrix(.45293746807 -.05561374745 .05561374745 .45293746807 34.61264292496 576.4014184527)"/><path d="m0 0-27-28" fill="none" stroke="#000" stroke-width="1.5" transform="matrix(.45633894862 0 0 .45633894862 48.89658216355 559.02778007919)"/><path d="m0 0-38-34" fill="none" stroke="#000" stroke-width="1.5" transform="matrix(.45633894862 0 0 .45633894862 67.20555629016 573.57521070541)"/><path d="m0 0 3 45" fill="none" stroke="#000" stroke-width="1.5" transform="matrix(.45522732798 .0318325929 -.0318325929 .45522732798 32.46122309129 574.14103644032)"/><g fill="none" fill-rule="evenodd" stroke="#000" stroke-width="1.5" transform="matrix(.45626944582 .00796420639 -.00796420639 .45626944582 67.49847184885 592.28782982936)"><path d="m2.99911-.073149-1-40.999951"/><path d="m-2.99911.073149-1-41.000049"/></g><circle fill="url(#b)" fill-rule="evenodd" r="9" stroke="#000" transform="matrix(.45633894862 0 0 .45633894862 32.42783177513 592.27207718118)"/><circle fill="url(#d)" fill-rule="evenodd" r="9" stroke="#000" transform="matrix(.45633894862 0 0 .45633894862 67.66176666708 592.28527083697)"/><circle fill="url(#b)" fill-rule="evenodd" r="9" stroke="#000" transform="matrix(.45633894862 0 0 .45633894862 36.63081135935 546.65137597529)"/><circle fill="url(#a)" fill-rule="evenodd" r="9" stroke="#000" transform="matrix(.45633894862 0 0 .45633894862 67.20555629016 573.57521070541)"/><circle fill="url(#a)" fill-rule="evenodd" r="9" stroke="#000" transform="matrix(.45633894862 0 0 .45633894862 49.86462494976 558.05985039761)"/><circle fill="url(#c)" fill-rule="evenodd" r="9" stroke="#000" transform="matrix(.45633894862 0 0 .45633894862 32.42783177513 574.16377612738)"/><text fill-rule="evenodd" font-family="'DejaVu Sans Mono'" font-size="9" font-weight="400" stroke-opacity=".501961" transform="matrix(.45633894862 0 0 .45633894862 40.86963945796 591.45594523158)" x="-4.75" y="4.69531">H</text><text fill-rule="evenodd" font-family="'DejaVu Sans Mono'" font-size="9" font-weight="400" stroke-opacity=".501961" transform="matrix(.45633894862 0 0 .45633894862 61.3244969463 591.32379943011)" x="-7.79688" y="5.11719">O'</text><text fill-rule="evenodd" font-family="'DejaVu Sans Mono'" font-size="9" font-weight="400" stroke-opacity=".501961" transform="matrix(.45633894862 0 0 .45633894862 30.67559213329 542.73816198565)" x="-11.4219" y="4.69531">HA</text><text fill-rule="evenodd" font-family="'DejaVu Sans Mono'" font-size="9" font-weight="400" stroke-opacity=".501961" transform="matrix(.45633894862 0 0 .45633894862 60.07669267056 575.43219937827)" x="-5.0625" y="4.92969">C</text><text fill-rule="evenodd" font-family="'DejaVu Sans Mono'" font-size="9" font-weight="400" stroke-opacity=".501961" transform="matrix(.45633894862 0 0 .45633894862 52.53193482154 565.43935106297)" x="-11.4063" y="4.92969">CA</text><text fill-rule="evenodd" font-family="'DejaVu Sans Mono'" font-size="9" font-weight="400" stroke-opacity=".501961" transform="matrix(.45633894862 0 0 .45633894862 40.88490292858 575.87156847489)" x="-4.78125" y="4.69531">N</text><text fill="#2828ff" fill-rule="evenodd" font-family="'DejaVu Sans Mono'" font-size="11" font-weight="700" transform="matrix(.56720473 0 0 .56720473 82.820694 452.91081)" x="6" y="-6">+</text></g></g></svg>